<mxfile host="app.diagrams.net" modified="2023-09-01T18:36:56.342Z" agent="Mozilla/5.0 (X11; Linux x86_64) AppleWebKit/537.36 (KHTML, like Gecko) Chrome/116.0.0.0 Safari/537.36 Edg/116.0.1938.62" version="21.7.2" etag="Onva_29k4XZBHzE-rwFk" type="github">
  <diagram name="Page-1" id="IOzJ-zDNC9FpTQ4LdG1J">
    <mxGraphModel>
      <root>
        <mxCell id="0" />
        <mxCell id="1" parent="0" />
      </root>
    </mxGraphModel>
  </diagram>
</mxfile>
